# xmcd CD database file
#
# Track frame offsets:
#	150
#	23691
#	36237
#	55244
#	66371
#	93724
#	115337
#	135580
#	158969
#	181986
#
# Disc length: 2641 seconds
#
# Revision: 0
# Processed by: cddbd v1.5.2PL0 Copyright (c) Steve Scherf et al.
# Submitted via: CDex 1.70beta2
#
DISCID=890a4f0a
DTITLE=Tal Balshai - Winterlandschaft
DYEAR=2008
DGENRE=Jazz
TTITLE0=Shmuél
TTITLE1=Gymnopedie Nr. 1
TTITLE2=Lillith
TTITLE3=Die Holzkiste
TTITLE4=Nacht und Nebel
TTITLE5=The Sultan's Horse
TTITLE6=Ein ehrliches Wort
TTITLE7=Schlafwandel
TTITLE8=Winterlandschaft
TTITLE9=Zarter Schimmer
EXTD=YEAR: 2008
EXTT0=
EXTT1=
EXTT2=
EXTT3=
EXTT4=
EXTT5=
EXTT6=
EXTT7=
EXTT8=
EXTT9=
PLAYORDER=
